<svg width="1607" height="172" viewBox="0 0 1607 172" fill="none" xmlns="http://www.w3.org/2000/svg">
<path d="M811.597 73.5483L809.842 73.2108C782.652 68.1442 764.846 63.608 764.846 47.3942C764.846 37.7941 769.8 30.4284 779.601 25.5048C790.563 19.9846 803.564 19.3879 808.6 19.3879C825.516 19.6025 842.607 22.1163 853.07 38.9201L855.149 42.2816L872.186 32.2226L869.811 28.6599C853.867 4.8737 833.832 9.05691e-05 808.654 9.05691e-05C786.716 9.05691e-05 767.006 6.74213 755.936 18.0338C748.146 25.9935 744.312 36.0513 744.555 47.8451C744.555 80.3943 777.347 86.8015 806.305 92.4568C835.803 98.0986 855.122 103.223 854.933 122.341C854.933 148.841 822.573 151.701 808.654 151.701C790.28 151.701 767.1 142.619 758.311 125.254L756.489 121.658L738.412 130.698L740.248 134.327C749.158 151.989 771.812 170.862 808.654 170.862C820.426 170.862 837.437 169.261 851.653 161.634C866.962 153.413 875.116 139.913 875.224 122.568C875.224 85.7782 841.419 79.2819 811.597 73.5483Z" fill="black"/>
<path d="M1370.94 6.5312V129.891L1270.59 6.5312H1259.43V161.656L1268.77 171H1279.72V49.4824L1379.08 171.165L1391 171V6.5312H1370.94Z" fill="black"/>
<path d="M1606.03 7.99089H1471.5V26.9277H1528.62V171H1548.91V26.9277H1549.1V16.4529L1559.58 26.9277H1606.03V7.99089Z" fill="black"/>
<path d="M524.823 151.159V96.9526H617.381V77.7929H524.823V24.4911H524.931V13.3777L536.042 24.4911H621.89V4.87518H504.762V171H624.604V151.159H524.823Z" fill="black"/>
<path d="M99.8889 88.9441C93.5033 96.3126 84.3366 100.207 73.3609 100.207H20.291V27.264H73.3609C97.6749 27.264 108.759 46.1698 108.759 63.7351C108.759 73.3783 105.6 82.3304 99.8889 88.9441ZM73.3609 7.87759H0V171L20 171L20.291 119.533V108.337L31.3207 119.368H73.3609C90.4522 119.368 104.857 113.311 114.996 101.848C123.946 91.7306 128.874 78.1561 128.874 63.623C128.874 35.9204 109.812 7.87759 73.3609 7.87759Z" fill="black"/>
<path d="M270.668 93.2152V25.9163H323.954C334.295 25.9163 343.016 29.2225 349.199 35.4758C355.22 41.5793 358.609 50.341 358.501 59.5266C358.352 74.8953 351.994 93.2152 322.603 93.2152H270.668ZM333.417 111.655C346.539 110.13 357.583 105.108 365.723 96.9062C374.998 87.537 380.047 74.3418 379.925 59.7547C379.79 45.8427 374.728 32.8554 365.642 23.1865C355.423 12.2918 341.004 6.5312 323.954 6.5312H250.377V171H270.668V112.982V101.788L281.698 112.828H307.942L361 171H388L333.417 111.655Z" fill="black"/>
<path d="M1022.23 152.812V98.6059H1114.79V79.4463H1022.23V26.1444H1022.34V15.031L1033.45 26.1444H1119.29V6.5285H1002.17V171H1122.01V152.812H1022.23Z" fill="black"/>
</svg>
