<svg width="1619" height="185" viewBox="0 0 1619 185" fill="none" xmlns="http://www.w3.org/2000/svg">
<g filter="url(#filter0_d_361_352)">
<path d="M818.084 73.5924L816.328 73.2546C789.122 68.1849 771.305 63.6461 771.305 47.4225C771.305 37.8167 776.262 30.4465 786.069 25.52C797.038 19.9964 810.047 19.3993 815.085 19.3993C832.011 19.6141 849.113 22.1294 859.582 38.9433L861.663 42.3069L878.71 32.2418L876.333 28.6769C860.379 4.87646 840.333 -7.75336e-05 815.14 -7.75336e-05C793.189 -7.75336e-05 773.466 6.74601 762.389 18.0444C754.595 26.009 750.759 36.0728 751.002 47.8737C751.002 80.4425 783.813 86.8535 812.789 92.5122C842.305 98.1574 861.635 103.285 861.446 122.414C861.446 148.93 829.067 151.792 815.14 151.792C796.755 151.792 773.561 142.704 764.767 125.33L762.943 121.731L744.855 130.776L746.692 134.407C755.608 152.08 778.275 170.965 815.14 170.965C826.919 170.965 843.94 169.363 858.164 161.731C873.483 153.505 881.641 139.997 881.749 122.641C881.749 85.8296 847.924 79.3294 818.084 73.5924Z" fill="white"/>
<path d="M1377.76 6.53486V129.969L1277.36 6.53486H1266.19V161.753L1277.18 172.757H1286.49V49.5119L1385.91 171.267L1387.13 172.757H1397.84V6.53486H1377.76Z" fill="white"/>
<path d="M1613 7.99517H1478.39V26.9434H1535.54V173.992H1555.85V26.9434H1556.04V16.4623L1566.52 26.9434H1613V7.99517Z" fill="white"/>
<path d="M531.14 152.904V98.6649H623.753V79.4938H531.14V26.1599H531.248V15.0398L542.365 26.1599H628.265V6.53218H511.066V172.757H630.98V152.904H531.14Z" fill="white"/>
<path d="M105.949 88.9986C99.5595 96.3715 90.3873 100.269 79.405 100.269H26.3032V27.2814H79.405C103.734 27.2814 114.824 46.1986 114.824 63.7744C114.824 73.4234 111.663 82.3808 105.949 88.9986ZM79.405 7.88336H6V174.105H26.3032V119.606V108.403L37.3395 119.441H79.405C96.5066 119.441 110.92 113.38 121.065 101.91C130.021 91.7868 134.951 78.2041 134.951 63.6623C134.951 35.943 115.878 7.88336 79.405 7.88336Z" fill="white"/>
<path d="M276.831 93.271V25.9316H330.148C340.496 25.9316 349.222 29.2398 355.409 35.4969C361.434 41.604 364.824 50.371 364.716 59.5621C364.567 74.9401 358.205 93.271 328.797 93.271H276.831ZM339.617 111.722C352.747 110.196 363.797 105.171 371.943 96.9642C381.223 87.5893 386.275 74.3862 386.154 59.7904C386.019 45.87 380.953 32.8749 371.862 23.2002C361.636 12.2989 347.209 6.53486 330.148 6.53486H256.527V172.757H276.831V113.05V101.849L287.867 112.896H314.127L368.795 172.757H395.867L339.617 111.722Z" fill="white"/>
<path d="M1028.84 152.904V98.6649H1121.46V79.4938H1028.84V26.1599H1028.95V15.0398L1040.07 26.1599H1125.97V6.53218H1008.77V172.757H1128.68V152.904H1028.84Z" fill="white"/>
</g>
<defs>
<filter id="filter0_d_361_352" x="0.643333" y="0" width="1617.71" height="184.819" filterUnits="userSpaceOnUse" color-interpolation-filters="sRGB">
<feFlood flood-opacity="0" result="BackgroundImageFix"/>
<feColorMatrix in="SourceAlpha" type="matrix" values="0 0 0 0 0 0 0 0 0 0 0 0 0 0 0 0 0 0 127 0" result="hardAlpha"/>
<feOffset dy="5.35667"/>
<feGaussianBlur stdDeviation="2.67833"/>
<feComposite in2="hardAlpha" operator="out"/>
<feColorMatrix type="matrix" values="0 0 0 0 0 0 0 0 0 0 0 0 0 0 0 0 0 0 0.25 0"/>
<feBlend mode="normal" in2="BackgroundImageFix" result="effect1_dropShadow_361_352"/>
<feBlend mode="normal" in="SourceGraphic" in2="effect1_dropShadow_361_352" result="shape"/>
</filter>
</defs>
</svg>
